<svg width="37" height="17" viewBox="0 0 37 17" fill="none" xmlns="http://www.w3.org/2000/svg">
<rect x="20" width="17" height="17" rx="2" fill="black"/>
<g clip-path="url(#clip0_2_407)">
<path fill-rule="evenodd" clip-rule="evenodd" d="M30.6 5.8V4.9C30.6 4.40294 30.197 4 29.7 4H27.3C26.8029 4 26.4 4.40294 26.4 4.9V5.8H24V6.4H24.6V12.1C24.6 12.597 25.0029 13 25.5 13H31.5C31.997 13 32.4 12.597 32.4 12.1V6.4H33V5.8H30.6ZM27 4.9C27 4.73432 27.1343 4.6 27.3 4.6H29.7C29.8657 4.6 30 4.73432 30 4.9V5.8H27V4.9ZM28.2 8.2V11.2H28.8V8.2H28.2ZM26.4 11.2V9.4H27V11.2H26.4ZM30 9.4V11.2H30.6V9.4H30Z" fill="white"/>
</g>
<defs>
<clipPath id="clip0_2_407">
<rect width="9" height="9" fill="white" transform="translate(24 4)"/>
</clipPath>
</defs>
</svg>
